<svg xmlns="http://www.w3.org/2000/svg" viewBox="0 0 512 512"><defs><style>.cls-1{fill:none;stroke:#000;stroke-miterlimit:10;stroke-width:15px;}</style></defs><title>fan-01</title><g id="Layer_1" data-name="Layer 1"><path d="M361.3,179.5a86.17,86.17,0,0,0-86.1-86.1H256.1a9.6,9.6,0,0,0-9.6,9.6v79.8A86.17,86.17,0,0,0,93.4,237v19a9.6,9.6,0,0,0,9.6,9.6h79.8A86.17,86.17,0,0,0,237,418.7h19.1a9.6,9.6,0,0,0,9.6-9.6V329.3a86.17,86.17,0,0,0,153.1-54.2V256a9.6,9.6,0,0,0-9.6-9.6H329.4A86,86,0,0,0,361.3,179.5ZM257.9,284.6A28.68,28.68,0,1,1,284.7,256,28.77,28.77,0,0,1,257.9,284.6Z"/></g><g id="Layer_2" data-name="Layer 2"><circle class="cls-1" cx="256" cy="255.98" r="195.76"/></g></svg>