<svg id="Layer_1" data-name="Layer 1" xmlns="http://www.w3.org/2000/svg" viewBox="0 0 479 479"><defs><style>.cls-1{fill:#fff;}</style></defs><title>power-supply</title><rect x="5.43" y="86.5" width="468.13" height="306"/><path class="cls-1" d="M66.18,213.21a8,8,0,0,0,5.64,2.34H135.7a8,8,0,0,0,5.64-2.34l23.95-24a8,8,0,0,0,2.34-5.65V143.69a8,8,0,0,0-8-8H47.87a8,8,0,0,0-8,8v39.92a8,8,0,0,0,2.34,5.65ZM55.86,151.68h95.8v28.63l-19.27,19.27H75.13L55.86,180.31Z"/><path class="cls-1" d="M85.48,173.31a9.32,9.32,0,0,0,1.67-2.63,8,8,0,1,0-15.33-3,8.11,8.11,0,0,0,.64,3,9.35,9.35,0,0,0,1.68,2.63A8.09,8.09,0,0,0,85.48,173.31Z"/><path class="cls-1" d="M100.73,191a7.92,7.92,0,0,0,8.7-1.68,9.23,9.23,0,0,0,1.67-2.64,7.84,7.84,0,0,0,.64-3,8,8,0,0,0-13.65-5.67,8.14,8.14,0,0,0-2.31,5.67,7.86,7.86,0,0,0,2.31,5.67A9.26,9.26,0,0,0,100.73,191Z"/><path class="cls-1" d="M122,173.31a8.09,8.09,0,0,0,11.34,0,9.58,9.58,0,0,0,1.68-2.63,8.11,8.11,0,0,0,.64-3,8.4,8.4,0,0,0-2.32-5.66,8.13,8.13,0,0,0-7.27-2.16,5.13,5.13,0,0,0-1.43.48,6.13,6.13,0,0,0-1.45.72,11.9,11.9,0,0,0-1.19,1,8.3,8.3,0,0,0-2.31,5.66,6.65,6.65,0,0,0,.64,3A9.32,9.32,0,0,0,122,173.31Z"/><path class="cls-1" d="M209.53,363.25h31.94v-16h-24V323.33h-16v31.94A8,8,0,0,0,209.53,363.25Z"/><path class="cls-1" d="M441.07,147.68h16V115.75a8,8,0,0,0-8-8H417.11v16h24Z"/><path class="cls-1" d="M217.51,123.73h24v-16H209.53a8,8,0,0,0-8,8v31.93h16Z"/><path class="cls-1" d="M441.07,347.28h-24v16h31.94a8,8,0,0,0,8-8V323.33h-16Z"/><path class="cls-1" d="M329.29,115.75A119.76,119.76,0,1,0,449.05,235.51,119.76,119.76,0,0,0,329.29,115.75Zm67.45,175.92a87.6,87.6,0,0,0,0-112.32L408,168.06A103.27,103.27,0,0,1,408,303Zm-27.53-56.16a39.7,39.7,0,0,1-6.65,22l-11.72-11.72a23.07,23.07,0,0,0,0-20.52l11.73-11.72A39.7,39.7,0,0,1,369.21,235.51Zm-79.84,0a39.68,39.68,0,0,1,6.65-22l11.71,11.72a23.13,23.13,0,0,0,0,20.52L296,257.49A39.7,39.7,0,0,1,289.37,235.51Zm31.94,0a8,8,0,1,1,8,8A8,8,0,0,1,321.31,235.51ZM339.55,214A23.07,23.07,0,0,0,319,214l-11.72-11.72a39.64,39.64,0,0,1,44,0ZM319,257.06a23.07,23.07,0,0,0,20.52,0l11.72,11.72a39.64,39.64,0,0,1-44,0ZM362.7,190.8a55.44,55.44,0,0,0-66.82,0l-11.39-11.4a71.54,71.54,0,0,1,89.6,0Zm-78.12,11.3a55.43,55.43,0,0,0,0,66.81l-11.4,11.39a71.52,71.52,0,0,1,0-89.59Zm11.3,78.12a55.47,55.47,0,0,0,66.82,0l11.39,11.39a71.54,71.54,0,0,1-89.6,0ZM374,268.91a55.46,55.46,0,0,0,0-66.81l11.39-11.39a71.5,71.5,0,0,1,0,89.59Zm22.74-112.13-11.28,11.28a87.58,87.58,0,0,0-112.32,0l-11.28-11.28A103.26,103.26,0,0,1,396.74,156.78ZM250.56,168.06l11.28,11.29a87.58,87.58,0,0,0,0,112.32L250.56,303A103.27,103.27,0,0,1,250.56,168.06Zm11.29,146.18L273.13,303a87.58,87.58,0,0,0,112.32,0l11.28,11.29A103.28,103.28,0,0,1,261.85,314.24Z"/><rect class="cls-1" x="39.89" y="307.38" width="123.68" height="15.95"/></svg>